<mxfile host="app.diagrams.net" agent="Mozilla/5.0 (X11; Ubuntu; Linux x86_64; rv:133.0) Gecko/20100101 Firefox/133.0" version="24.7.7">
  <diagram name="Page-1" id="YP_6cg5GkYYka4A9xflM">
    <mxGraphModel dx="571" dy="330" grid="1" gridSize="10" guides="1" tooltips="1" connect="1" arrows="1" fold="1" page="1" pageScale="1" pageWidth="850" pageHeight="1100" math="0" shadow="0">
      <root>
        <mxCell id="0" />
        <mxCell id="1" parent="0" />
        <mxCell id="fGKBeTUwiFX8djsi_qTr-1" value="client" style="shape=umlLifeline;perimeter=lifelinePerimeter;whiteSpace=wrap;html=1;container=1;dropTarget=0;collapsible=0;recursiveResize=0;outlineConnect=0;portConstraint=eastwest;newEdgeStyle={&quot;curved&quot;:0,&quot;rounded&quot;:0};participant=umlEntity;" vertex="1" parent="1">
          <mxGeometry x="120" y="120" width="40" height="300" as="geometry" />
        </mxCell>
        <mxCell id="fGKBeTUwiFX8djsi_qTr-7" value="" style="html=1;points=[[0,0,0,0,5],[0,1,0,0,-5],[1,0,0,0,5],[1,1,0,0,-5]];perimeter=orthogonalPerimeter;outlineConnect=0;targetShapes=umlLifeline;portConstraint=eastwest;newEdgeStyle={&quot;curved&quot;:0,&quot;rounded&quot;:0};" vertex="1" parent="fGKBeTUwiFX8djsi_qTr-1">
          <mxGeometry x="15" y="60" width="10" height="30" as="geometry" />
        </mxCell>
        <mxCell id="fGKBeTUwiFX8djsi_qTr-8" value="" style="html=1;points=[[0,0,0,0,5],[0,1,0,0,-5],[1,0,0,0,5],[1,1,0,0,-5]];perimeter=orthogonalPerimeter;outlineConnect=0;targetShapes=umlLifeline;portConstraint=eastwest;newEdgeStyle={&quot;curved&quot;:0,&quot;rounded&quot;:0};" vertex="1" parent="fGKBeTUwiFX8djsi_qTr-1">
          <mxGeometry x="15" y="110" width="10" height="170" as="geometry" />
        </mxCell>
        <mxCell id="fGKBeTUwiFX8djsi_qTr-9" value="has topics?" style="html=1;align=left;spacingLeft=2;endArrow=block;rounded=0;edgeStyle=orthogonalEdgeStyle;curved=0;rounded=0;" edge="1" target="fGKBeTUwiFX8djsi_qTr-8" parent="fGKBeTUwiFX8djsi_qTr-1">
          <mxGeometry relative="1" as="geometry">
            <mxPoint x="20" y="90" as="sourcePoint" />
            <Array as="points">
              <mxPoint x="50" y="120" />
            </Array>
          </mxGeometry>
        </mxCell>
        <mxCell id="fGKBeTUwiFX8djsi_qTr-2" value="server" style="shape=umlLifeline;perimeter=lifelinePerimeter;whiteSpace=wrap;html=1;container=1;dropTarget=0;collapsible=0;recursiveResize=0;outlineConnect=0;portConstraint=eastwest;newEdgeStyle={&quot;curved&quot;:0,&quot;rounded&quot;:0};participant=umlEntity;" vertex="1" parent="1">
          <mxGeometry x="390" y="120" width="40" height="300" as="geometry" />
        </mxCell>
        <mxCell id="fGKBeTUwiFX8djsi_qTr-6" value="" style="html=1;points=[[0,0,0,0,5],[0,1,0,0,-5],[1,0,0,0,5],[1,1,0,0,-5]];perimeter=orthogonalPerimeter;outlineConnect=0;targetShapes=umlLifeline;portConstraint=eastwest;newEdgeStyle={&quot;curved&quot;:0,&quot;rounded&quot;:0};" vertex="1" parent="fGKBeTUwiFX8djsi_qTr-2">
          <mxGeometry x="15" y="150" width="10" height="20" as="geometry" />
        </mxCell>
        <mxCell id="fGKBeTUwiFX8djsi_qTr-11" value="" style="html=1;points=[[0,0,0,0,5],[0,1,0,0,-5],[1,0,0,0,5],[1,1,0,0,-5]];perimeter=orthogonalPerimeter;outlineConnect=0;targetShapes=umlLifeline;portConstraint=eastwest;newEdgeStyle={&quot;curved&quot;:0,&quot;rounded&quot;:0};" vertex="1" parent="fGKBeTUwiFX8djsi_qTr-2">
          <mxGeometry x="15" y="200" width="10" height="80" as="geometry" />
        </mxCell>
        <mxCell id="fGKBeTUwiFX8djsi_qTr-4" value="model uploaded" style="html=1;verticalAlign=bottom;startArrow=circle;startFill=1;endArrow=open;startSize=6;endSize=8;curved=0;rounded=0;entryX=0;entryY=0;entryDx=0;entryDy=5;entryPerimeter=0;" edge="1" parent="1">
          <mxGeometry width="80" relative="1" as="geometry">
            <mxPoint x="10" y="185" as="sourcePoint" />
            <mxPoint x="135" y="185" as="targetPoint" />
          </mxGeometry>
        </mxCell>
        <mxCell id="fGKBeTUwiFX8djsi_qTr-5" value="[GET] topic information (history)" style="html=1;verticalAlign=bottom;startArrow=none;startFill=0;endArrow=block;startSize=8;curved=0;rounded=0;" edge="1" parent="1">
          <mxGeometry width="60" relative="1" as="geometry">
            <mxPoint x="145" y="269.8" as="sourcePoint" />
            <mxPoint x="405" y="269.8" as="targetPoint" />
          </mxGeometry>
        </mxCell>
        <mxCell id="fGKBeTUwiFX8djsi_qTr-10" value="topic history" style="html=1;verticalAlign=bottom;endArrow=open;dashed=1;endSize=8;curved=0;rounded=0;" edge="1" parent="1" source="fGKBeTUwiFX8djsi_qTr-6" target="fGKBeTUwiFX8djsi_qTr-8">
          <mxGeometry relative="1" as="geometry">
            <mxPoint x="310" y="310" as="sourcePoint" />
            <mxPoint x="230" y="310" as="targetPoint" />
            <Array as="points">
              <mxPoint x="320" y="290" />
            </Array>
          </mxGeometry>
        </mxCell>
        <mxCell id="fGKBeTUwiFX8djsi_qTr-12" value="[WS] subscribe" style="html=1;verticalAlign=bottom;startArrow=none;startFill=0;endArrow=block;startSize=8;curved=0;rounded=0;" edge="1" parent="1" source="fGKBeTUwiFX8djsi_qTr-8" target="fGKBeTUwiFX8djsi_qTr-11">
          <mxGeometry width="60" relative="1" as="geometry">
            <mxPoint x="250" y="330" as="sourcePoint" />
            <mxPoint x="380" y="330" as="targetPoint" />
          </mxGeometry>
        </mxCell>
        <mxCell id="fGKBeTUwiFX8djsi_qTr-13" value="topic data point" style="html=1;verticalAlign=bottom;endArrow=open;dashed=1;endSize=8;curved=0;rounded=0;" edge="1" parent="1">
          <mxGeometry relative="1" as="geometry">
            <mxPoint x="405" y="350" as="sourcePoint" />
            <mxPoint x="145" y="350" as="targetPoint" />
          </mxGeometry>
        </mxCell>
        <mxCell id="fGKBeTUwiFX8djsi_qTr-14" value="" style="html=1;verticalAlign=bottom;endArrow=open;dashed=1;endSize=8;curved=0;rounded=0;" edge="1" parent="1" source="fGKBeTUwiFX8djsi_qTr-11" target="fGKBeTUwiFX8djsi_qTr-8">
          <mxGeometry relative="1" as="geometry">
            <mxPoint x="400" y="360" as="sourcePoint" />
            <mxPoint x="150" y="360" as="targetPoint" />
          </mxGeometry>
        </mxCell>
        <mxCell id="fGKBeTUwiFX8djsi_qTr-15" value="" style="html=1;verticalAlign=bottom;endArrow=open;dashed=1;endSize=8;curved=0;rounded=0;" edge="1" parent="1">
          <mxGeometry relative="1" as="geometry">
            <mxPoint x="405" y="370" as="sourcePoint" />
            <mxPoint x="145" y="370" as="targetPoint" />
          </mxGeometry>
        </mxCell>
        <mxCell id="fGKBeTUwiFX8djsi_qTr-17" value="&amp;nbsp;[WS] close connection" style="html=1;verticalAlign=bottom;endArrow=block;curved=0;rounded=0;entryX=0;entryY=1;entryDx=0;entryDy=-5;entryPerimeter=0;" edge="1" parent="1" source="fGKBeTUwiFX8djsi_qTr-8" target="fGKBeTUwiFX8djsi_qTr-11">
          <mxGeometry width="80" relative="1" as="geometry">
            <mxPoint x="240" y="420" as="sourcePoint" />
            <mxPoint x="320" y="420" as="targetPoint" />
          </mxGeometry>
        </mxCell>
        <mxCell id="fGKBeTUwiFX8djsi_qTr-19" value="&lt;div style=&quot;font-size: 11px;&quot;&gt;&lt;font style=&quot;font-size: 11px;&quot;&gt;GET: Rest request&lt;/font&gt;&lt;/div&gt;&lt;font style=&quot;font-size: 11px;&quot;&gt;WS: Websocket&lt;/font&gt;" style="text;html=1;align=center;verticalAlign=middle;whiteSpace=wrap;rounded=0;" vertex="1" parent="1">
          <mxGeometry x="160" y="430" width="120" height="30" as="geometry" />
        </mxCell>
      </root>
    </mxGraphModel>
  </diagram>
</mxfile>
